<svg xmlns="http://www.w3.org/2000/svg" viewBox="2587.761 180.406 703.549 567.227">
  <defs>
    <style>
      .cls-1 {
        opacity: 0.659;
      }

      .cls-2 {
        fill: none;
      }

      .cls-3 {
        fill: #ffa99a;
      }

      .cls-4 {
        fill: #fff;
      }

      .cls-5 {
        fill: #231f20;
      }

      .cls-6 {
        fill: #e6e7e8;
      }

      .cls-7 {
        fill: #ffe3aa;
      }

      .cls-8 {
        fill: #4d7c9a;
      }

      .cls-9 {
        fill: #a0dfff;
      }

      .cls-10 {
        fill: #a7a9ac;
      }

      .cls-11 {
        fill: #6d6e71;
      }
    </style>
  </defs>
  <g id="_56" data-name="56" class="cls-1" transform="translate(2587.761 180.406)">
    <g id="Group_51" data-name="Group 51">
      <g id="Group_50" data-name="Group 50">
        <rect id="Rectangle_218" data-name="Rectangle 218" class="cls-2" width="703.549" height="567.227"/>
      </g>
    </g>
    <g id="Group_52" data-name="Group 52" transform="translate(177.345 146.379)">
      <path id="Path_36" data-name="Path 36" class="cls-3" d="M701.751,517.2c0,12.965-9.146,23.5-20.4,23.5H375c-11.257,0-20.4-10.534-20.4-23.5V278.1c0-12.965,9.146-23.5,20.4-23.5H681.348c11.257,0,20.4,10.534,20.4,23.5Z" transform="translate(-353.746 -253.616)"/>
      <path id="Path_37" data-name="Path 37" d="M680.5,540.97H374.157c-11.709,0-21.257-11-21.257-24.483v-239.1c0-13.486,9.548-24.483,21.257-24.483H680.5c11.709,0,21.257,11,21.257,24.483v239.1C701.76,530.031,692.211,540.97,680.5,540.97ZM374.157,254.81c-10.8,0-19.6,10.129-19.6,22.573v239.1c0,12.444,8.794,22.573,19.6,22.573H680.5c10.8,0,19.6-10.129,19.6-22.573v-239.1c0-12.444-8.794-22.573-19.6-22.573Z" transform="translate(-352.9 -252.9)"/>
    </g>
    <g id="Group_53" data-name="Group 53" transform="translate(280.716 173.178)">
      <rect id="Rectangle_219" data-name="Rectangle 219" class="cls-4" width="222.171" height="32.76" transform="translate(0.804 0.926)"/>
      <path id="Path_38" data-name="Path 38" d="M781.525,333.812H559.4a.86.86,0,0,1-.8-.926v-32.76a.86.86,0,0,1,.8-.926H781.575a.86.86,0,0,1,.8.926v32.76A.9.9,0,0,1,781.525,333.812ZM560.208,331.9H780.72v-30.85H560.208Z" transform="translate(-558.6 -299.2)"/>
    </g>
    <g id="Group_54" data-name="Group 54" transform="translate(287.349 183.307)">
      <path id="Path_39" data-name="Path 39" class="cls-5" d="M582.856,328.16l-2.613-8.624h-1.206l-2.563,8.566-3.065-11.055-.05-.347H571.8l3.92,14.3.1.289h1.256l2.563-8.45,2.563,8.45h1.307l4.071-14.586h-1.558Z" transform="translate(-571.8 -316.7)"/>
      <path id="Path_40" data-name="Path 40" class="cls-5" d="M625.156,328.16l-2.613-8.624h-1.206l-2.563,8.566-3.015-11.055-.1-.347H614.1l3.92,14.3.1.289h1.307l2.512-8.45,2.614,8.45h1.257L629.88,316.7h-1.558Z" transform="translate(-592.843 -316.7)"/>
      <path id="Path_41" data-name="Path 41" class="cls-5" d="M667.456,328.16l-2.613-8.624h-1.206l-2.563,8.566-3.015-11.055-.1-.347H656.4l3.919,14.3.1.289h1.306l2.513-8.45,2.613,8.45h1.256l4.071-14.586h-1.558Z" transform="translate(-613.885 -316.7)"/>
      <path id="Path_42" data-name="Path 42" class="cls-5" d="M704.4,336.4c-.4,0-.9.289-.9,1.678s.5,1.679.9,1.679.9-.289.9-1.679S704.807,336.4,704.4,336.4Z" transform="translate(-637.316 -324.997)"/>
      <path id="Path_43" data-name="Path 43" class="cls-5" d="M704.4,321.757c.4,0,.9-.289.9-1.678s-.5-1.679-.9-1.679-.9.289-.9,1.679S704,321.757,704.4,321.757Z" transform="translate(-637.316 -317.416)"/>
    </g>
    <g id="Group_55" data-name="Group 55" transform="translate(199.155 222.608)">
      <rect id="Rectangle_220" data-name="Rectangle 220" class="cls-4" width="303.732" height="183.249" transform="translate(0.804 0.926)"/>
      <path id="Path_44" data-name="Path 44" d="M700.786,569.7H397.1a.86.86,0,0,1-.8-.926V385.526a.86.86,0,0,1,.8-.926H700.836a.86.86,0,0,1,.8.926V568.775A.9.9,0,0,1,700.786,569.7Zm-302.878-1.91H699.982V386.452H397.908Z" transform="translate(-396.3 -384.6)"/>
    </g>
    <g id="Group_56" data-name="Group 56" transform="translate(88.647 399.837)">
      <rect id="Rectangle_221" data-name="Rectangle 221" class="cls-4" width="248.102" height="93.94" transform="translate(0.804 0.926)"/>
      <path id="Path_45" data-name="Path 45" d="M425.306,786.592H177.2a.86.86,0,0,1-.8-.926v-93.94a.86.86,0,0,1,.8-.926h248.1a.86.86,0,0,1,.8.926v93.94A.8.8,0,0,1,425.306,786.592Zm-247.247-1.91H424.5V692.652H178.058Z" transform="translate(-176.4 -690.8)"/>
    </g>
    <g id="Group_57" data-name="Group 57" transform="translate(98.346 411.934)">
      <rect id="Rectangle_222" data-name="Rectangle 222" class="cls-6" width="14.423" height="15.975" transform="translate(0.804 0.926)"/>
      <path id="Path_46" data-name="Path 46" d="M210.927,729.527H196.5a.861.861,0,0,1-.8-.926V712.626a.86.86,0,0,1,.8-.926h14.423a.86.86,0,0,1,.8.926V728.6A.861.861,0,0,1,210.927,729.527Zm-13.619-1.852h12.764V713.61H197.308Z" transform="translate(-195.7 -711.7)"/>
    </g>
    <g id="Group_58" data-name="Group 58" transform="translate(122.166 411.934)">
      <rect id="Rectangle_223" data-name="Rectangle 223" class="cls-6" width="14.423" height="15.975" transform="translate(0.804 0.926)"/>
      <path id="Path_47" data-name="Path 47" d="M258.327,729.527H243.9a.861.861,0,0,1-.8-.926V712.626a.86.86,0,0,1,.8-.926h14.423a.86.86,0,0,1,.8.926V728.6A.861.861,0,0,1,258.327,729.527Zm-13.569-1.852h12.764V713.61H244.758Z" transform="translate(-243.1 -711.7)"/>
    </g>
    <g id="Group_59" data-name="Group 59" transform="translate(145.986 411.934)">
      <rect id="Rectangle_224" data-name="Rectangle 224" class="cls-6" width="14.423" height="15.975" transform="translate(0.804 0.926)"/>
      <path id="Path_48" data-name="Path 48" d="M305.727,729.527H291.3a.861.861,0,0,1-.8-.926V712.626a.86.86,0,0,1,.8-.926h14.423a.86.86,0,0,1,.8.926V728.6A.861.861,0,0,1,305.727,729.527Zm-13.619-1.852h12.764V713.61H292.108Z" transform="translate(-290.5 -711.7)"/>
    </g>
    <g id="Group_60" data-name="Group 60" transform="translate(169.807 411.934)">
      <rect id="Rectangle_225" data-name="Rectangle 225" class="cls-6" width="14.423" height="15.975" transform="translate(0.804 0.926)"/>
      <path id="Path_49" data-name="Path 49" d="M353.127,729.527H338.7a.861.861,0,0,1-.8-.926V712.626a.86.86,0,0,1,.8-.926h14.423a.86.86,0,0,1,.8.926V728.6A.861.861,0,0,1,353.127,729.527Zm-13.619-1.852h12.764V713.61H339.508Z" transform="translate(-337.9 -711.7)"/>
    </g>
    <g id="Group_61" data-name="Group 61" transform="translate(193.576 411.934)">
      <rect id="Rectangle_226" data-name="Rectangle 226" class="cls-6" width="14.423" height="15.975" transform="translate(0.854 0.926)"/>
      <path id="Path_50" data-name="Path 50" d="M400.427,729.527H386a.861.861,0,0,1-.8-.926V712.626a.86.86,0,0,1,.8-.926h14.423a.86.86,0,0,1,.8.926V728.6A.83.83,0,0,1,400.427,729.527Zm-13.568-1.852h12.764V713.61H386.858Z" transform="translate(-385.2 -711.7)"/>
    </g>
    <g id="Group_62" data-name="Group 62" transform="translate(217.397 411.934)">
      <rect id="Rectangle_227" data-name="Rectangle 227" class="cls-6" width="14.423" height="15.975" transform="translate(0.854 0.926)"/>
      <path id="Path_51" data-name="Path 51" d="M447.827,729.527H433.4a.861.861,0,0,1-.8-.926V712.626a.86.86,0,0,1,.8-.926h14.423a.86.86,0,0,1,.8.926V728.6A.83.83,0,0,1,447.827,729.527Zm-13.568-1.852h12.764V713.61H434.258Z" transform="translate(-432.6 -711.7)"/>
    </g>
    <g id="Group_63" data-name="Group 63" transform="translate(241.217 411.934)">
      <rect id="Rectangle_228" data-name="Rectangle 228" class="cls-6" width="14.423" height="15.975" transform="translate(0.804 0.926)"/>
      <path id="Path_52" data-name="Path 52" d="M495.227,729.527H480.8a.86.86,0,0,1-.8-.926V712.626a.86.86,0,0,1,.8-.926h14.423a.86.86,0,0,1,.8.926V728.6A.83.83,0,0,1,495.227,729.527Zm-13.568-1.852h12.764V713.61H481.658Z" transform="translate(-480 -711.7)"/>
    </g>
    <g id="Group_64" data-name="Group 64" transform="translate(265.037 411.934)">
      <rect id="Rectangle_229" data-name="Rectangle 229" class="cls-6" width="14.423" height="15.975" transform="translate(0.804 0.926)"/>
      <path id="Path_53" data-name="Path 53" d="M542.627,729.527H528.2a.861.861,0,0,1-.8-.926V712.626a.86.86,0,0,1,.8-.926h14.423a.86.86,0,0,1,.8.926V728.6A.861.861,0,0,1,542.627,729.527Zm-13.569-1.852h12.764V713.61H529.058Z" transform="translate(-527.4 -711.7)"/>
    </g>
    <g id="Group_65" data-name="Group 65" transform="translate(288.857 411.934)">
      <rect id="Rectangle_230" data-name="Rectangle 230" class="cls-6" width="14.423" height="15.975" transform="translate(0.804 0.926)"/>
      <path id="Path_54" data-name="Path 54" d="M590.027,729.527H575.6a.86.86,0,0,1-.8-.926V712.626a.86.86,0,0,1,.8-.926h14.423a.86.86,0,0,1,.8.926V728.6A.861.861,0,0,1,590.027,729.527Zm-13.568-1.852h12.765V713.61H576.458Z" transform="translate(-574.8 -711.7)"/>
    </g>
    <g id="Group_66" data-name="Group 66" transform="translate(312.677 411.934)">
      <rect id="Rectangle_231" data-name="Rectangle 231" class="cls-6" width="14.423" height="15.975" transform="translate(0.804 0.926)"/>
      <path id="Path_55" data-name="Path 55" d="M637.427,729.527H623a.861.861,0,0,1-.8-.926V712.626a.86.86,0,0,1,.8-.926h14.423a.86.86,0,0,1,.8.926V728.6A.861.861,0,0,1,637.427,729.527Zm-13.619-1.852h12.764V713.61H623.808Z" transform="translate(-622.2 -711.7)"/>
    </g>
    <g id="Group_67" data-name="Group 67" transform="translate(98.346 439.138)">
      <rect id="Rectangle_232" data-name="Rectangle 232" class="cls-6" width="14.423" height="15.975" transform="translate(0.804 0.868)"/>
      <path id="Path_56" data-name="Path 56" d="M210.927,776.527H196.5a.86.86,0,0,1-.8-.926V759.626a.86.86,0,0,1,.8-.926h14.423a.861.861,0,0,1,.8.926V775.6A.86.86,0,0,1,210.927,776.527Zm-13.619-1.91h12.764V760.552H197.308Z" transform="translate(-195.7 -758.7)"/>
    </g>
    <g id="Group_68" data-name="Group 68" transform="translate(122.166 439.138)">
      <rect id="Rectangle_233" data-name="Rectangle 233" class="cls-6" width="14.423" height="15.975" transform="translate(0.804 0.868)"/>
      <path id="Path_57" data-name="Path 57" d="M258.327,776.527H243.9a.86.86,0,0,1-.8-.926V759.626a.86.86,0,0,1,.8-.926h14.423a.86.86,0,0,1,.8.926V775.6A.86.86,0,0,1,258.327,776.527Zm-13.569-1.91h12.764V760.552H244.758Z" transform="translate(-243.1 -758.7)"/>
    </g>
    <g id="Group_69" data-name="Group 69" transform="translate(145.986 439.138)">
      <rect id="Rectangle_234" data-name="Rectangle 234" class="cls-6" width="14.423" height="15.975" transform="translate(0.804 0.868)"/>
      <path id="Path_58" data-name="Path 58" d="M305.727,776.527H291.3a.86.86,0,0,1-.8-.926V759.626a.861.861,0,0,1,.8-.926h14.423a.86.86,0,0,1,.8.926V775.6A.86.86,0,0,1,305.727,776.527Zm-13.619-1.91h12.764V760.552H292.108Z" transform="translate(-290.5 -758.7)"/>
    </g>
    <g id="Group_70" data-name="Group 70" transform="translate(169.807 439.138)">
      <rect id="Rectangle_235" data-name="Rectangle 235" class="cls-6" width="14.423" height="15.975" transform="translate(0.804 0.868)"/>
      <path id="Path_59" data-name="Path 59" d="M353.127,776.527H338.7a.86.86,0,0,1-.8-.926V759.626a.86.86,0,0,1,.8-.926h14.423a.86.86,0,0,1,.8.926V775.6A.86.86,0,0,1,353.127,776.527Zm-13.619-1.91h12.764V760.552H339.508Z" transform="translate(-337.9 -758.7)"/>
    </g>
    <g id="Group_71" data-name="Group 71" transform="translate(193.576 439.138)">
      <rect id="Rectangle_236" data-name="Rectangle 236" class="cls-6" width="14.423" height="15.975" transform="translate(0.854 0.868)"/>
      <path id="Path_60" data-name="Path 60" d="M400.427,776.527H386a.86.86,0,0,1-.8-.926V759.626a.86.86,0,0,1,.8-.926h14.423a.861.861,0,0,1,.8.926V775.6A.83.83,0,0,1,400.427,776.527Zm-13.568-1.91h12.764V760.552H386.858Z" transform="translate(-385.2 -758.7)"/>
    </g>
    <g id="Group_72" data-name="Group 72" transform="translate(217.397 439.138)">
      <rect id="Rectangle_237" data-name="Rectangle 237" class="cls-6" width="14.423" height="15.975" transform="translate(0.854 0.868)"/>
      <path id="Path_61" data-name="Path 61" d="M447.827,776.527H433.4a.86.86,0,0,1-.8-.926V759.626a.861.861,0,0,1,.8-.926h14.423a.86.86,0,0,1,.8.926V775.6A.83.83,0,0,1,447.827,776.527Zm-13.568-1.91h12.764V760.552H434.258Z" transform="translate(-432.6 -758.7)"/>
    </g>
    <g id="Group_73" data-name="Group 73" transform="translate(288.857 439.138)">
      <rect id="Rectangle_238" data-name="Rectangle 238" class="cls-6" width="14.423" height="15.975" transform="translate(0.804 0.868)"/>
      <path id="Path_62" data-name="Path 62" d="M590.027,776.527H575.6a.86.86,0,0,1-.8-.926V759.626a.86.86,0,0,1,.8-.926h14.423a.861.861,0,0,1,.8.926V775.6A.861.861,0,0,1,590.027,776.527Zm-13.568-1.91h12.765V760.552H576.458Z" transform="translate(-574.8 -758.7)"/>
    </g>
    <g id="Group_74" data-name="Group 74" transform="translate(312.677 439.138)">
      <rect id="Rectangle_239" data-name="Rectangle 239" class="cls-6" width="14.423" height="15.975" transform="translate(0.804 0.868)"/>
      <path id="Path_63" data-name="Path 63" d="M637.427,776.527H623a.86.86,0,0,1-.8-.926V759.626a.86.86,0,0,1,.8-.926h14.423a.86.86,0,0,1,.8.926V775.6A.86.86,0,0,1,637.427,776.527Zm-13.619-1.91h12.764V760.552H623.808Z" transform="translate(-622.2 -758.7)"/>
    </g>
    <g id="Group_75" data-name="Group 75" transform="translate(98.346 466.284)">
      <rect id="Rectangle_240" data-name="Rectangle 240" class="cls-6" width="14.423" height="15.975" transform="translate(0.804 0.926)"/>
      <path id="Path_64" data-name="Path 64" d="M210.927,823.427H196.5a.86.86,0,0,1-.8-.926V806.526a.86.86,0,0,1,.8-.926h14.423a.861.861,0,0,1,.8.926V822.5A.86.86,0,0,1,210.927,823.427Zm-13.619-1.91h12.764V807.452H197.308Z" transform="translate(-195.7 -805.6)"/>
    </g>
    <g id="Group_76" data-name="Group 76" transform="translate(122.166 466.284)">
      <rect id="Rectangle_241" data-name="Rectangle 241" class="cls-6" width="14.423" height="15.975" transform="translate(0.804 0.926)"/>
      <path id="Path_65" data-name="Path 65" d="M258.327,823.427H243.9a.86.86,0,0,1-.8-.926V806.526a.86.86,0,0,1,.8-.926h14.423a.861.861,0,0,1,.8.926V822.5A.86.86,0,0,1,258.327,823.427Zm-13.569-1.91h12.764V807.452H244.758Z" transform="translate(-243.1 -805.6)"/>
    </g>
    <g id="Group_77" data-name="Group 77" transform="translate(145.986 466.284)">
      <rect id="Rectangle_242" data-name="Rectangle 242" class="cls-6" width="14.423" height="15.975" transform="translate(0.804 0.926)"/>
      <path id="Path_66" data-name="Path 66" d="M305.727,823.427H291.3a.86.86,0,0,1-.8-.926V806.526a.86.86,0,0,1,.8-.926h14.423a.861.861,0,0,1,.8.926V822.5A.86.86,0,0,1,305.727,823.427Zm-13.619-1.91h12.764V807.452H292.108Z" transform="translate(-290.5 -805.6)"/>
    </g>
    <g id="Group_78" data-name="Group 78" transform="translate(169.807 466.284)">
      <rect id="Rectangle_243" data-name="Rectangle 243" class="cls-6" width="62.063" height="15.975" transform="translate(0.804 0.926)"/>
      <path id="Path_67" data-name="Path 67" d="M400.717,823.427H338.7a.86.86,0,0,1-.8-.926V806.526a.86.86,0,0,1,.8-.926h62.063a.861.861,0,0,1,.8.926V822.5A.9.9,0,0,1,400.717,823.427Zm-61.209-1.91h60.4V807.452h-60.4Z" transform="translate(-337.9 -805.6)"/>
    </g>
    <g id="Group_79" data-name="Group 79" transform="translate(241.217 466.284)">
      <rect id="Rectangle_244" data-name="Rectangle 244" class="cls-6" width="14.423" height="15.975" transform="translate(0.804 0.926)"/>
      <path id="Path_68" data-name="Path 68" d="M495.227,823.427H480.8a.86.86,0,0,1-.8-.926V806.526a.86.86,0,0,1,.8-.926h14.423a.861.861,0,0,1,.8.926V822.5A.83.83,0,0,1,495.227,823.427Zm-13.568-1.91h12.764V807.452H481.658Z" transform="translate(-480 -805.6)"/>
    </g>
    <g id="Group_80" data-name="Group 80" transform="translate(241.267 439.138)">
      <path id="Path_69" data-name="Path 69" class="cls-6" d="M508.335,760.2H481.6v15.974h23.82v27.2h14.423V760.2Z" transform="translate(-480.846 -759.332)"/>
      <path id="Path_70" data-name="Path 70" d="M519.1,803.673H504.674a.86.86,0,0,1-.8-.926v-26.22H480.9a.861.861,0,0,1-.8-.927V759.626a.86.86,0,0,1,.8-.926h38.243a.86.86,0,0,1,.8.926v43.121A.935.935,0,0,1,519.1,803.673Zm-13.568-1.91h12.764V760.495H481.708v14.064h22.966a.86.86,0,0,1,.8.926v26.278Z" transform="translate(-480.1 -758.7)"/>
    </g>
    <g id="Group_81" data-name="Group 81" transform="translate(288.857 466.284)">
      <rect id="Rectangle_245" data-name="Rectangle 245" class="cls-6" width="14.423" height="15.975" transform="translate(0.804 0.926)"/>
      <path id="Path_71" data-name="Path 71" d="M590.027,823.427H575.6a.86.86,0,0,1-.8-.926V806.526a.86.86,0,0,1,.8-.926h14.423a.861.861,0,0,1,.8.926V822.5A.86.86,0,0,1,590.027,823.427Zm-13.568-1.91h12.765V807.452H576.458Z" transform="translate(-574.8 -805.6)"/>
    </g>
    <g id="Group_82" data-name="Group 82" transform="translate(312.677 466.284)">
      <rect id="Rectangle_246" data-name="Rectangle 246" class="cls-6" width="14.423" height="15.975" transform="translate(0.804 0.926)"/>
      <path id="Path_72" data-name="Path 72" d="M637.427,823.427H623a.86.86,0,0,1-.8-.926V806.526a.86.86,0,0,1,.8-.926h14.423a.861.861,0,0,1,.8.926V822.5A.86.86,0,0,1,637.427,823.427Zm-13.619-1.91h12.764V807.452H623.808Z" transform="translate(-622.2 -805.6)"/>
    </g>
    <g id="Group_85" data-name="Group 85" transform="translate(129.353 254.673)">
      <g id="Group_83" data-name="Group 83">
        <path id="Path_73" data-name="Path 73" class="cls-4" d="M259,586.806V465.547c0-13.139,9.3-23.847,20.7-23.847H306.64" transform="translate(-258.196 -440.716)"/>
        <path id="Path_74" data-name="Path 74" d="M258.2,587.016a.86.86,0,0,1-.8-.926V561.375a.812.812,0,1,1,1.608,0V586.09A.8.8,0,0,1,258.2,587.016Zm0-49.488a.86.86,0,0,1-.8-.926V511.887a.812.812,0,1,1,1.608,0V536.6A.8.8,0,0,1,258.2,537.528Zm0-49.488a.86.86,0,0,1-.8-.926V464.83c0-.868.051-1.736.1-2.546a.881.881,0,0,1,.9-.868.938.938,0,0,1,.754,1.042c-.05.753-.1,1.563-.1,2.373v22.284A.867.867,0,0,1,258.2,488.041Zm12.111-43.931a.885.885,0,0,1-.754-.579,1.042,1.042,0,0,1,.4-1.273,18.847,18.847,0,0,1,9-2.257h12.564a.935.935,0,0,1,0,1.852H278.959a17.56,17.56,0,0,0-8.292,2.084A.353.353,0,0,1,270.315,444.109Z" transform="translate(-257.4 -440)"/>
      </g>
      <g id="Group_84" data-name="Group 84">
        <path id="Path_75" data-name="Path 75" d="M258.2,587.016a.86.86,0,0,1-.8-.926V561.375a.812.812,0,1,1,1.608,0V586.09A.8.8,0,0,1,258.2,587.016Zm0-49.488a.86.86,0,0,1-.8-.926V511.887a.812.812,0,1,1,1.608,0V536.6A.8.8,0,0,1,258.2,537.528Zm0-49.488a.86.86,0,0,1-.8-.926V464.83c0-.868.051-1.736.1-2.546a.881.881,0,0,1,.9-.868.938.938,0,0,1,.754,1.042c-.05.753-.1,1.563-.1,2.373v22.284A.867.867,0,0,1,258.2,488.041Zm12.111-43.931a.885.885,0,0,1-.754-.579,1.042,1.042,0,0,1,.4-1.273,18.847,18.847,0,0,1,9-2.257h12.564a.935.935,0,0,1,0,1.852H278.959a17.56,17.56,0,0,0-8.292,2.084A.353.353,0,0,1,270.315,444.109Z" transform="translate(-257.4 -440)"/>
      </g>
    </g>
    <g id="Group_88" data-name="Group 88" transform="translate(545.904 400.242)">
      <g id="Group_86" data-name="Group 86">
        <path id="Path_76" data-name="Path 76" d="M1135.3,733.463H1087.1a.86.86,0,0,1-.8-.926V718.762c0-15.049,10.6-27.262,23.669-27.262h2.513c13.066,0,23.669,12.213,23.669,27.262v13.775A.9.9,0,0,1,1135.3,733.463Zm-47.339-1.852h46.535v-12.85c0-13.949-9.85-25.352-22.012-25.352h-2.512c-12.11,0-22.01,11.344-22.01,25.352Z" transform="translate(-1086.3 -691.5)"/>
      </g>
      <g id="Group_87" data-name="Group 87" transform="translate(0 40.053)">
        <path id="Path_77" data-name="Path 77" d="M1112.482,811.635h-2.513c-13.065,0-23.669-12.213-23.669-27.262V761.626a.86.86,0,0,1,.8-.926H1135.3a.86.86,0,0,1,.8.926v22.747C1136.152,799.421,1125.548,811.635,1112.482,811.635Zm-24.524-49.024v21.763c0,13.949,9.85,25.352,22.01,25.352h2.513c12.111,0,22.011-11.344,22.011-25.352V762.61Z" transform="translate(-1086.3 -760.7)"/>
      </g>
    </g>
    <g id="Group_89" data-name="Group 89" transform="translate(570.025 410.719)">
      <path id="Path_78" data-name="Path 78" d="M1135.1,732.463a.86.86,0,0,1-.8-.926v-21.01a.812.812,0,1,1,1.609,0v21.01A.9.9,0,0,1,1135.1,732.463Z" transform="translate(-1134.3 -709.6)"/>
    </g>
    <g id="Group_90" data-name="Group 90" transform="translate(524.546 337.668)">
      <path id="Path_79" data-name="Path 79" d="M1088.777,647.875a.86.86,0,0,1-.8-.926V622.234a.812.812,0,1,1,1.608,0v24.715A.8.8,0,0,1,1088.777,647.875Zm-2.061-49.14a.822.822,0,0,1-.754-.521c-3.065-7.293-9.3-12.213-16.232-12.907a.939.939,0,0,1-.753-1.042.882.882,0,0,1,.9-.868c7.538.752,14.271,6.078,17.589,13.949a.988.988,0,0,1-.4,1.273A.386.386,0,0,1,1086.716,598.734Zm-38.394-13.486H1044.6a.935.935,0,0,1,0-1.852h3.718a.86.86,0,0,1,.8.926A.83.83,0,0,1,1048.323,585.248Z" transform="translate(-1043.8 -583.39)"/>
    </g>
    <g id="Group_91" data-name="Group 91" transform="translate(353.722 451.727)">
      <path id="Path_80" data-name="Path 80" class="cls-7" d="M705.4,811.766,720.375,781.9l14.976,29.866Z" transform="translate(-704.634 -781.061)"/>
      <path id="Path_81" data-name="Path 81" d="M734.643,812.139H704.692a.789.789,0,0,1-.7-.463,1,1,0,0,1,0-.926l14.976-29.866a.787.787,0,0,1,1.407,0l14.875,29.692a1.034,1.034,0,0,1,.252.694A.974.974,0,0,1,734.643,812.139Zm-28.544-1.91h27.086L719.667,783.2Z" transform="translate(-703.875 -780.45)"/>
    </g>
    <g id="Group_92" data-name="Group 92" transform="translate(399.314 451.698)">
      <rect id="Rectangle_247" data-name="Rectangle 247" class="cls-8" width="25.931" height="29.866" transform="translate(0.804 0.868)"/>
      <path id="Path_82" data-name="Path 82" d="M821.335,812.118H795.4a.86.86,0,0,1-.8-.926V781.326a.86.86,0,0,1,.8-.926h25.931a.86.86,0,0,1,.8.926v29.866A.862.862,0,0,1,821.335,812.118Zm-25.076-1.91H820.53V782.252H796.258Z" transform="translate(-794.6 -780.4)"/>
    </g>
    <g id="Group_93" data-name="Group 93" transform="translate(442.583 450.887)">
      <path id="Path_83" data-name="Path 83" class="cls-3" d="M909.537,796.327c0,8.624-6.081,15.628-13.569,15.628s-13.568-7-13.568-15.628,6.08-15.627,13.568-15.627S909.537,787.7,909.537,796.327Z" transform="translate(-881.545 -779.716)"/>
      <path id="Path_84" data-name="Path 84" d="M895.123,812.223c-7.94,0-14.423-7.467-14.423-16.612S887.183,779,895.123,779s14.423,7.466,14.423,16.612S903.063,812.223,895.123,812.223Zm0-31.313c-7.035,0-12.764,6.6-12.764,14.7s5.729,14.7,12.764,14.7,12.764-6.6,12.764-14.7S902.158,780.91,895.123,780.91Z" transform="translate(-880.7 -779)"/>
    </g>
    <g id="Group_96" data-name="Group 96" transform="translate(545.954 78.081)">
      <g id="Group_94" data-name="Group 94">
        <rect id="Rectangle_248" data-name="Rectangle 248" class="cls-9" width="114.729" height="27.551" transform="translate(0.754 0.868)"/>
        <path id="Path_85" data-name="Path 85" d="M1201.933,164.3H1087.2a.861.861,0,0,1-.8-.926V135.826a.861.861,0,0,1,.8-.926h114.729a.859.859,0,0,1,.8.926v27.493A.916.916,0,0,1,1201.933,164.3Zm-113.924-1.91h113.12V136.752h-113.12Z" transform="translate(-1086.4 -134.9)"/>
      </g>
      <g id="Group_95" data-name="Group 95" transform="translate(0 27.493)">
        <path id="Path_86" data-name="Path 86" d="M1201.933,358.7H1087.2a.861.861,0,0,1-.8-.926V183.326a.861.861,0,0,1,.8-.926h114.729a.86.86,0,0,1,.8.926V357.719A.916.916,0,0,1,1201.933,358.7Zm-113.924-1.91h113.12V184.31h-113.12Z" transform="translate(-1086.4 -182.4)"/>
      </g>
    </g>
    <g id="Group_97" data-name="Group 97" transform="translate(628.973 86.184)">
      <rect id="Rectangle_249" data-name="Rectangle 249" class="cls-4" width="9.799" height="11.287" transform="translate(0.754 0.868)"/>
      <path id="Path_87" data-name="Path 87" d="M1262.2,162.039h-9.8a.86.86,0,0,1-.8-.926V149.826a.86.86,0,0,1,.8-.926h9.8a.86.86,0,0,1,.8.926v11.287A.9.9,0,0,1,1262.2,162.039Zm-9-1.91h8.142v-9.435h-8.142Z" transform="translate(-1251.6 -148.9)"/>
    </g>
    <g id="Group_98" data-name="Group 98" transform="translate(644.652 86.126)">
      <path id="Path_88" data-name="Path 88" class="cls-4" d="M1294.15,156.072c0,3.126-2.211,5.672-4.925,5.672s-4.925-2.547-4.925-5.672,2.211-5.672,4.925-5.672S1294.15,152.947,1294.15,156.072Z" transform="translate(-1283.545 -149.474)"/>
      <path id="Path_89" data-name="Path 89" d="M1288.529,162c-3.166,0-5.729-2.952-5.729-6.6s2.563-6.6,5.729-6.6,5.729,2.952,5.729,6.6C1294.258,158.987,1291.695,162,1288.529,162Zm0-11.345c-2.261,0-4.071,2.084-4.071,4.688s1.81,4.688,4.071,4.688,4.071-2.084,4.071-4.688C1292.6,152.794,1290.74,150.652,1288.529,150.652Z" transform="translate(-1282.8 -148.8)"/>
    </g>
    <g id="Group_99" data-name="Group 99" transform="translate(466.051 91.798)">
      <path id="Path_90" data-name="Path 90" d="M928.2,202.473a.86.86,0,0,1-.8-.926V183.431a28.2,28.2,0,0,1,.854-6.83c.151-.521.6-.81,1.006-.637a.947.947,0,0,1,.553,1.158,26.32,26.32,0,0,0-.754,6.309v18.116A.981.981,0,0,1,928.2,202.473Zm15.478-41.211a.887.887,0,0,1-.8-.694.964.964,0,0,1,.6-1.158,19.035,19.035,0,0,1,5.427-.81H965.09a.935.935,0,0,1,0,1.852H948.908a16.572,16.572,0,0,0-5.025.752A.271.271,0,0,1,943.682,161.262Zm64.374-.753H986.6a.935.935,0,0,1,0-1.852h21.458a.935.935,0,0,1,0,1.852Z" transform="translate(-927.4 -158.6)"/>
    </g>
    <g id="Group_100" data-name="Group 100" transform="translate(47.389 47.346)">
      <path id="Path_91" data-name="Path 91" class="cls-9" d="M254.65,154.519H254.2c0-19.506-13.77-35.365-30.7-35.365a27.786,27.786,0,0,0-9.8,1.852C207.914,99.3,190.376,83.5,169.671,83.5c-25.428,0-46.082,23.731-46.082,53.076-15.177,0-27.489,14.181-27.489,31.661S108.412,199.9,123.589,199.9h75.179c.3,0,.6-.058.9-.058s.6.058.9.058H254.65c10.9,0,19.7-10.187,19.7-22.689C274.349,164.648,265.5,154.519,254.65,154.519Z" transform="translate(-95.195 -82.516)"/>
      <path id="Path_92" data-name="Path 92" d="M253.754,200.107H199.631a2.693,2.693,0,0,1-.653-.058h-.6c-.2,0-.4.058-.6.058H122.643c-15.629,0-28.343-14.644-28.343-32.644,0-17.653,12.262-32.124,27.489-32.587C122.241,105.531,143.1,81.8,168.675,81.8c20.453,0,38.293,14.933,44.575,37.275a27.387,27.387,0,0,1,9.3-1.621c17.136,0,31.107,15.8,31.509,35.365,11.156.232,20.152,10.766,20.152,23.673C274.258,189.515,265.061,200.107,253.754,200.107Zm-55.028-1.91H253.7c10.4,0,18.9-9.782,18.9-21.763s-8.493-21.763-18.9-21.763h-.452a.86.86,0,0,1-.8-.926c0-18.985-13.418-34.439-29.9-34.439A26.234,26.234,0,0,0,213,121.159a.862.862,0,0,1-.653-.058.908.908,0,0,1-.4-.579c-5.829-22.052-23.217-36.87-43.268-36.87-24.926,0-45.228,23.384-45.228,52.092a.86.86,0,0,1-.8.926c-14.724,0-26.685,13.775-26.685,30.734s11.96,30.734,26.685,30.734h75.631A1.218,1.218,0,0,0,198.727,198.2Z" transform="translate(-94.3 -81.8)"/>
    </g>
    <g id="Group_101" data-name="Group 101" transform="translate(95.268 66.186)">
      <path id="Path_93" data-name="Path 93" class="cls-4" d="M217.734,115.9,191.2,168.86h7.789v44.684h37.489V168.86h7.84Z" transform="translate(-190.383 -115.003)"/>
      <path id="Path_94" data-name="Path 94" d="M235.67,213.817H198.181a.86.86,0,0,1-.8-.926V169.134h-6.985a.789.789,0,0,1-.7-.463,1,1,0,0,1,0-.926l26.534-52.961a.787.787,0,0,1,1.407,0l26.534,52.961a1,1,0,0,1,0,.926.789.789,0,0,1-.7.463h-6.935v43.7A.916.916,0,0,1,235.67,213.817Zm-36.635-1.91h35.831v-43.7a.86.86,0,0,1,.8-.926h6.382l-25.127-50.067L191.8,167.282h6.382a.86.86,0,0,1,.8.926v43.7Z" transform="translate(-189.575 -114.35)"/>
    </g>
    <g id="Group_102" data-name="Group 102" transform="translate(110.507 120.391)">
      <path id="Path_95" data-name="Path 95" d="M220.7,253.262a.86.86,0,0,1-.8-.926v-43.41a.812.812,0,1,1,1.608,0v43.41A.86.86,0,0,1,220.7,253.262Z" transform="translate(-219.9 -208)"/>
    </g>
    <g id="Group_103" data-name="Group 103" transform="translate(121.814 163.859)">
      <path id="Path_96" data-name="Path 96" d="M298.784,343.7H287.025a.935.935,0,0,1,0-1.852h11.759a.935.935,0,0,1,0,1.852Zm-33.268,0h-1.608c-6.985,0-13.569-3.994-17.639-10.592a1.1,1.1,0,0,1,.2-1.331.792.792,0,0,1,1.156.232c3.719,6.135,9.85,9.782,16.282,9.782h1.608a.86.86,0,0,1,.8.926A.851.851,0,0,1,265.517,343.7ZM243.2,309.667a.86.86,0,0,1-.8-.926V284.026a.812.812,0,1,1,1.608,0v24.715A.862.862,0,0,1,243.2,309.667Z" transform="translate(-242.4 -283.1)"/>
    </g>
    <g id="Group_104" data-name="Group 104" transform="translate(63.219 259.767)">
      <path id="Path_97" data-name="Path 97" class="cls-8" d="M127.4,450.4v69.8c0,8.855,6.231,16.091,13.97,16.091h9.9c7.739,0,13.971-7.178,13.971-16.091V450.4Z" transform="translate(-126.596 -449.474)"/>
      <path id="Path_98" data-name="Path 98" d="M150.474,536.6h-9.9c-8.141,0-14.775-7.64-14.775-17.016V449.726a.86.86,0,0,1,.8-.926h37.841a.86.86,0,0,1,.8.926v69.8C165.249,528.964,158.616,536.6,150.474,536.6ZM127.408,450.71v68.878c0,8.335,5.88,15.164,13.116,15.164h9.9c7.237,0,13.116-6.772,13.116-15.164V450.71Z" transform="translate(-125.8 -448.8)"/>
    </g>
    <g id="Group_105" data-name="Group 105" transform="translate(67.892 227.643)">
      <path id="Path_99" data-name="Path 99" d="M164.4,427.333H135.9a.86.86,0,0,1-.8-.926V394.226a.86.86,0,0,1,.8-.926H164.4a.86.86,0,0,1,.8.926v32.182A.9.9,0,0,1,164.4,427.333Zm-27.69-1.91h26.886V395.152H136.708Z" transform="translate(-135.1 -393.3)"/>
    </g>
    <g id="Group_106" data-name="Group 106" transform="translate(73.471 236.441)">
      <path id="Path_100" data-name="Path 100" d="M147,424.88a.86.86,0,0,1-.8-.926V409.426a.86.86,0,0,1,.8-.926h5.829a.935.935,0,0,1,0,1.852h-4.975V423.9C147.808,424.475,147.456,424.88,147,424.88Z" transform="translate(-146.2 -408.5)"/>
    </g>
    <g id="Group_107" data-name="Group 107" transform="translate(84.979 236.441)">
      <path id="Path_101" data-name="Path 101" d="M169.9,424.88a.86.86,0,0,1-.8-.926V409.426a.86.86,0,0,1,.8-.926h5.829a.935.935,0,0,1,0,1.852h-4.975V423.9C170.708,424.475,170.356,424.88,169.9,424.88Z" transform="translate(-169.1 -408.5)"/>
    </g>
    <g id="Group_112" data-name="Group 112" transform="translate(72.265 281.732)">
      <g id="Group_108" data-name="Group 108" transform="translate(9.95 6.801)">
        <path id="Path_102" data-name="Path 102" class="cls-4" d="M164.4,535.6a.861.861,0,0,1-.8-.927V499.426a.812.812,0,1,1,1.608,0v35.249A.83.83,0,0,1,164.4,535.6Z" transform="translate(-163.6 -498.5)"/>
      </g>
      <g id="Group_109" data-name="Group 109" transform="translate(0 18.551)">
        <path id="Path_103" data-name="Path 103" class="cls-4" d="M154.554,536.106a.852.852,0,0,1-.4-.116l-9.95-6.54a.959.959,0,0,1-.4-.811v-8.913a.812.812,0,1,1,1.608,0v8.393l9.548,6.251a.972.972,0,0,1,.3,1.274A.737.737,0,0,1,154.554,536.106Z" transform="translate(-143.8 -518.8)"/>
      </g>
      <g id="Group_110" data-name="Group 110" transform="translate(9.922 10.158)">
        <path id="Path_104" data-name="Path 104" class="cls-4" d="M164.376,523.227a.772.772,0,0,1-.653-.347,1.028,1.028,0,0,1,.151-1.331l9.448-8.45v-7.872a.812.812,0,1,1,1.608,0v8.335a1,1,0,0,1-.3.752l-9.749,8.74A1.335,1.335,0,0,1,164.376,523.227Z" transform="translate(-163.545 -504.3)"/>
      </g>
      <g id="Group_111" data-name="Group 111" transform="translate(6.52)">
        <path id="Path_105" data-name="Path 105" class="cls-4" d="M164.476,495.4h-6.885a.789.789,0,0,1-.7-.463,1,1,0,0,1,0-.926l3.417-6.83a.787.787,0,0,1,1.407,0l3.317,6.6a1.035,1.035,0,0,1,.251.695A.861.861,0,0,1,164.476,495.4Zm-5.427-1.91h3.97l-2.01-3.936Z" transform="translate(-156.775 -486.75)"/>
      </g>
    </g>
    <g id="Group_117" data-name="Group 117" transform="translate(612.64 351.507)">
      <g id="Group_113" data-name="Group 113" transform="translate(4.221 26.972)">
        <path id="Path_106" data-name="Path 106" d="M1249.209,674.969H1228.3a.86.86,0,0,1-.8-.926V654.826a.861.861,0,0,1,.8-.926h20.905a.861.861,0,0,1,.8.926v19.217A.8.8,0,0,1,1249.209,674.969Zm-20.051-1.91h19.247V655.752h-19.247Z" transform="translate(-1227.5 -653.9)"/>
      </g>
      <g id="Group_114" data-name="Group 114">
        <rect id="Rectangle_250" data-name="Rectangle 250" class="cls-10" width="29.398" height="26.972" transform="translate(0.804 0.926)"/>
        <path id="Path_107" data-name="Path 107" d="M1249.3,636.125h-29.4a.861.861,0,0,1-.8-.926V608.226a.86.86,0,0,1,.8-.926h29.4a.861.861,0,0,1,.8.926V635.2A.86.86,0,0,1,1249.3,636.125Zm-28.594-1.852h27.74V609.21h-27.74Z" transform="translate(-1219.1 -607.3)"/>
      </g>
      <g id="Group_115" data-name="Group 115" transform="translate(16.735 32.76)">
        <path id="Path_108" data-name="Path 108" d="M1256.622,673.392a.859.859,0,0,1-.8-.926v-6.715h-2.613a.935.935,0,0,1,0-1.852h3.467a.86.86,0,0,1,.8.926v7.64A.934.934,0,0,1,1256.622,673.392Z" transform="translate(-1252.4 -663.9)"/>
      </g>
      <g id="Group_116" data-name="Group 116" transform="translate(9.146 32.76)">
        <path id="Path_109" data-name="Path 109" d="M1241.521,673.392a.86.86,0,0,1-.8-.926v-6.715H1238.1a.935.935,0,0,1,0-1.852h3.467a.86.86,0,0,1,.8.926v7.64A.934.934,0,0,1,1241.521,673.392Z" transform="translate(-1237.3 -663.9)"/>
      </g>
    </g>
    <g id="Group_118" data-name="Group 118" transform="translate(524.546 309.254)">
      <path id="Path_110" data-name="Path 110" d="M1147.373,578.462a.86.86,0,0,1-.8-.926V556.41a19.165,19.165,0,0,0-.3-3.415.9.9,0,0,1,.653-1.1.8.8,0,0,1,.955.753,23.175,23.175,0,0,1,.3,3.762v21.127A.862.862,0,0,1,1147.373,578.462ZM1132.7,537.078a.273.273,0,0,1-.2-.058,19.489,19.489,0,0,0-5.779-.868h-15.428a.935.935,0,0,1,0-1.852h15.428a22.627,22.627,0,0,1,6.231.926.963.963,0,0,1,.6,1.157A.916.916,0,0,1,1132.7,537.078Zm-42.916-.868h-21.458a.935.935,0,0,1,0-1.852h21.458a.935.935,0,0,1,0,1.852Zm-42.967,0H1044.6a.935.935,0,0,1,0-1.852h2.211a.935.935,0,0,1,0,1.852Z" transform="translate(-1043.8 -534.3)"/>
    </g>
    <g id="Group_124" data-name="Group 124" transform="translate(261.469 81.785)">
      <g id="Group_119" data-name="Group 119" transform="translate(28.051 22.052)">
        <path id="Path_111" data-name="Path 111" class="cls-6" d="M579.208,180.9v13.139a9.419,9.419,0,0,1-1.508,5.209H680.066V180.9Z" transform="translate(-576.905 -180.032)"/>
        <path id="Path_112" data-name="Path 112" d="M679.28,199.6H576.964a.821.821,0,0,1-.754-.521,1.12,1.12,0,0,1,.05-.984,8.934,8.934,0,0,0,1.357-4.63V180.326a.86.86,0,0,1,.8-.926H679.28a.86.86,0,0,1,.8.926v18.348A.831.831,0,0,1,679.28,199.6Zm-100.858-1.91H678.476V181.252h-99.2v12.213A11.073,11.073,0,0,1,578.421,197.69Z" transform="translate(-576.119 -179.4)"/>
      </g>
      <g id="Group_120" data-name="Group 120" transform="translate(28.034 3.704)">
        <path id="Path_113" data-name="Path 113" class="cls-4" d="M579.257,167.548H680.116V149.2H577.8a9.421,9.421,0,0,1,1.507,5.209v13.139Z" transform="translate(-576.939 -148.332)"/>
        <path id="Path_114" data-name="Path 114" d="M679.263,167.9H578.4a.86.86,0,0,1-.8-.926V153.835a8.353,8.353,0,0,0-1.356-4.63.987.987,0,0,1-.05-.984.774.774,0,0,1,.754-.521H679.314a.86.86,0,0,1,.8.926v18.348A.9.9,0,0,1,679.263,167.9Zm-100-1.91h99.2V149.552H578.4a11.07,11.07,0,0,1,.854,4.225Z" transform="translate(-576.086 -147.7)"/>
      </g>
      <g id="Group_121" data-name="Group 121">
        <path id="Path_115" data-name="Path 115" class="cls-3" d="M549.992,146.5a7.524,7.524,0,0,0-6.232-3.7H521.9v44.1h21.86a7.394,7.394,0,0,0,6.232-3.7,9.418,9.418,0,0,0,1.508-5.209V151.714A10.324,10.324,0,0,0,549.992,146.5Z" transform="translate(-521.096 -141.932)"/>
        <path id="Path_116" data-name="Path 116" d="M542.964,187.2H521.1a.86.86,0,0,1-.8-.926V142.226a.86.86,0,0,1,.8-.926h21.86a8.229,8.229,0,0,1,6.885,4.052,10.94,10.94,0,0,1,1.658,5.788v26.278a10.648,10.648,0,0,1-1.658,5.788A8.3,8.3,0,0,1,542.964,187.2Zm-21.006-1.91h21.006a6.693,6.693,0,0,0,5.578-3.3,8.936,8.936,0,0,0,1.357-4.63V151.082a8.349,8.349,0,0,0-1.357-4.63,6.628,6.628,0,0,0-5.578-3.3H521.958Z" transform="translate(-520.3 -141.3)"/>
      </g>
      <g id="Group_122" data-name="Group 122" transform="translate(130.408 3.702)">
        <path id="Path_117" data-name="Path 117" class="cls-7" d="M806.828,159.734,781.4,149.2v36.7l27.137-11.229Z" transform="translate(-780.596 -148.329)"/>
        <path id="Path_118" data-name="Path 118" d="M780.6,186.247a.645.645,0,0,1-.452-.173,1.038,1.038,0,0,1-.352-.753v-36.7a1.038,1.038,0,0,1,.352-.753.715.715,0,0,1,.754-.116l25.428,10.534a.919.919,0,0,1,.553.752l1.708,14.991a.966.966,0,0,1-.553,1.042L780.906,186.3C780.8,186.189,780.7,186.247,780.6,186.247Zm.854-36.349v34.034L806.836,173.4l-1.558-13.6Z" transform="translate(-779.8 -147.696)"/>
      </g>
      <g id="Group_123" data-name="Group 123" transform="translate(156.027 16.38)">
        <path id="Path_119" data-name="Path 119" class="cls-10" d="M845.767,176.7,832.5,171.2l1.207,10.534Z" transform="translate(-831.636 -170.274)"/>
        <path id="Path_120" data-name="Path 120" d="M832.851,181.986a1.3,1.3,0,0,1-.452-.116,1.169,1.169,0,0,1-.4-.695L830.79,170.7a1.074,1.074,0,0,1,.3-.868.71.71,0,0,1,.8-.174l13.266,5.5a.917.917,0,0,1,.553.868.865.865,0,0,1-.553.868L833.1,181.871A.258.258,0,0,1,832.851,181.986Zm-.2-10.013.9,7.756,8.945-3.7Z" transform="translate(-830.78 -169.6)"/>
      </g>
    </g>
    <g id="Group_125" data-name="Group 125" transform="translate(557.261 120.391)">
      <path id="Path_121" data-name="Path 121" d="M1163.777,272.189H1109.7a.861.861,0,0,1-.8-.926V208.926a.861.861,0,0,1,.8-.926h54.072a.861.861,0,0,1,.8.926v62.279A.917.917,0,0,1,1163.777,272.189Zm-53.219-1.91h52.415V209.91h-52.415Z" transform="translate(-1108.9 -208)"/>
    </g>
    <g id="Group_126" data-name="Group 126" transform="translate(564.239 128.248)">
      <path id="Path_122" data-name="Path 122" class="cls-3" d="M1162.591,257.218a24.114,24.114,0,0,0,2.01-7.177l-5.478-2.084a13.711,13.711,0,0,0,.051-1.447c0-.463-.051-.984-.051-1.447l5.478-2.084a27.6,27.6,0,0,0-2.01-7.177l-5.479,2.084a16.92,16.92,0,0,0-1.457-2.315l3.417-5.383a20.819,20.819,0,0,0-5.327-4.457l-3.367,5.383a15.392,15.392,0,0,0-2.412-.868v-6.656a18.571,18.571,0,0,0-6.532,0v6.656a20.09,20.09,0,0,0-2.412.868l-3.367-5.383a21.672,21.672,0,0,0-5.327,4.457l3.418,5.383a15.751,15.751,0,0,0-1.458,2.315l-5.477-2.084a24.167,24.167,0,0,0-2.011,7.177l5.478,2.084a13.915,13.915,0,0,0-.05,1.447c0,.463.05.984.05,1.447l-5.478,2.084a27.541,27.541,0,0,0,2.011,7.177l5.477-2.084a17.017,17.017,0,0,0,1.458,2.315l-3.418,5.383a20.8,20.8,0,0,0,5.327,4.457l3.367-5.383a15.3,15.3,0,0,0,2.412.868v6.656a18.578,18.578,0,0,0,6.532,0v-6.656a20.115,20.115,0,0,0,2.412-.868l3.367,5.383a21.688,21.688,0,0,0,5.327-4.457l-3.417-5.383a15.712,15.712,0,0,0,1.457-2.315Zm-17.941.637c-5.427,0-9.85-5.093-9.85-11.344s4.422-11.345,9.85-11.345,9.85,5.093,9.85,11.345C1154.5,252.819,1150.078,257.855,1144.65,257.855Z" transform="translate(-1123.787 -222.301)"/>
      <path id="Path_123" data-name="Path 123" d="M1143.648,270.035a17.473,17.473,0,0,1-3.417-.347.9.9,0,0,1-.7-.926v-5.9a8.378,8.378,0,0,1-1.256-.463l-3.015,4.746a.733.733,0,0,1-1.055.289,21.2,21.2,0,0,1-5.528-4.63,1.083,1.083,0,0,1-.1-1.216l3.015-4.8c-.251-.405-.554-.81-.8-1.273l-4.875,1.852a.838.838,0,0,1-1.005-.463,27.272,27.272,0,0,1-2.111-7.467.99.99,0,0,1,.552-1.042l4.875-1.852v-1.5l-4.875-1.852a.929.929,0,0,1-.552-1.042,26.709,26.709,0,0,1,2.111-7.467.784.784,0,0,1,1.005-.463l4.875,1.852c.25-.405.5-.868.8-1.273l-3.015-4.8a1,1,0,0,1,.1-1.215,21.206,21.206,0,0,1,5.528-4.63.791.791,0,0,1,1.055.289l3.015,4.746a11,11,0,0,1,1.256-.463v-5.9a.9.9,0,0,1,.7-.926,19.358,19.358,0,0,1,6.833,0,.9.9,0,0,1,.7.926v5.9a8.348,8.348,0,0,1,1.257.463l3.015-4.746a.732.732,0,0,1,1.055-.289,21.21,21.21,0,0,1,5.529,4.63,1.083,1.083,0,0,1,.1,1.215l-3.015,4.8c.25.405.552.81.8,1.273l4.874-1.852a.837.837,0,0,1,1.005.463,27.275,27.275,0,0,1,2.111,7.467.99.99,0,0,1-.553,1.042l-4.874,1.852v1.5l4.874,1.852a.929.929,0,0,1,.553,1.042,26.709,26.709,0,0,1-2.111,7.467.783.783,0,0,1-1.005.463l-4.874-1.852c-.251.405-.5.868-.8,1.273l3.015,4.8a1,1,0,0,1-.1,1.216,21.209,21.209,0,0,1-5.529,4.63.791.791,0,0,1-1.055-.289l-3.015-4.746a11.023,11.023,0,0,1-1.257.463v5.9a.9.9,0,0,1-.7.926A17.485,17.485,0,0,1,1143.648,270.035Zm-2.463-2.083a17.549,17.549,0,0,0,4.924,0v-5.846a.909.909,0,0,1,.654-.926,21.743,21.743,0,0,0,2.261-.81.789.789,0,0,1,1.005.289l2.965,4.688a19.2,19.2,0,0,0,3.969-3.357L1154,257.244a1.07,1.07,0,0,1,.05-1.158,21.655,21.655,0,0,0,1.407-2.2.766.766,0,0,1,.955-.405l4.824,1.794a24.932,24.932,0,0,0,1.507-5.383l-4.824-1.794a.909.909,0,0,1-.552-.984,12.762,12.762,0,0,0,.051-1.389c0-.463-.051-.926-.051-1.389a.91.91,0,0,1,.552-.984l4.824-1.794a24.932,24.932,0,0,0-1.507-5.383l-4.824,1.794a.83.83,0,0,1-.955-.405,15.433,15.433,0,0,0-1.407-2.2,1.076,1.076,0,0,1-.05-1.158l2.964-4.746a21.164,21.164,0,0,0-3.969-3.357l-2.965,4.688a.789.789,0,0,1-1.005.289,9.788,9.788,0,0,0-2.261-.81.967.967,0,0,1-.654-.926V223.5a17.54,17.54,0,0,0-4.924,0v5.846a.907.907,0,0,1-.653.926,21.726,21.726,0,0,0-2.262.81.788.788,0,0,1-1.005-.289L1134.3,226.1a19.2,19.2,0,0,0-3.97,3.357l2.965,4.688a1.071,1.071,0,0,1-.05,1.158c-.5.695-.955,1.447-1.408,2.2a.715.715,0,0,1-.955.405l-4.825-1.794a24.984,24.984,0,0,0-1.507,5.383l4.824,1.794a.911.911,0,0,1,.553.984,12.7,12.7,0,0,0-.051,1.389c0,.463.051.926.051,1.389a.911.911,0,0,1-.553.984l-4.824,1.794a24.983,24.983,0,0,0,1.507,5.383l4.825-1.794a.829.829,0,0,1,.955.405,12.727,12.727,0,0,0,1.408,2.2,1.077,1.077,0,0,1,.05,1.158l-2.965,4.746a21.169,21.169,0,0,0,3.97,3.357l2.965-4.688a.774.774,0,0,1,1.005-.289,9.78,9.78,0,0,0,2.262.81.969.969,0,0,1,.653.926Zm2.463-9.84c-5.881,0-10.7-5.5-10.7-12.271s4.774-12.328,10.7-12.328c5.879,0,10.7,5.5,10.7,12.328C1154.352,252.555,1149.527,258.112,1143.648,258.112Zm0-22.689c-4.976,0-9.046,4.688-9.046,10.418s4.071,10.419,9.046,10.419,9.045-4.688,9.045-10.419C1152.693,240.053,1148.622,235.423,1143.648,235.423Z" transform="translate(-1122.785 -221.575)"/>
    </g>
    <g id="Group_127" data-name="Group 127" transform="translate(618.269 128.321)">
      <rect id="Rectangle_251" data-name="Rectangle 251" class="cls-7" width="32.866" height="9.84" transform="translate(0.804 0.868)"/>
      <path id="Path_124" data-name="Path 124" d="M1263.97,233.392H1231.1a.86.86,0,0,1-.8-.926v-9.84a.86.86,0,0,1,.8-.926h32.866a.86.86,0,0,1,.8.926v9.84A.9.9,0,0,1,1263.97,233.392Zm-32.062-1.91h31.207v-7.93h-31.207Z" transform="translate(-1230.3 -221.7)"/>
    </g>
    <g id="Group_128" data-name="Group 128" transform="translate(557.261 192.799)">
      <rect id="Rectangle_252" data-name="Rectangle 252" class="cls-7" width="76.586" height="9.84" transform="translate(0.804 0.926)"/>
      <path id="Path_125" data-name="Path 125" d="M1186.291,344.792H1109.7a.861.861,0,0,1-.8-.926v-9.839a.861.861,0,0,1,.8-.926h76.586a.86.86,0,0,1,.8.926v9.839A.86.86,0,0,1,1186.291,344.792Zm-75.733-1.852h74.929v-7.93h-74.929Z" transform="translate(-1108.9 -333.1)"/>
    </g>
    <g id="Group_129" data-name="Group 129" transform="translate(557.261 210.858)">
      <rect id="Rectangle_253" data-name="Rectangle 253" class="cls-7" width="50.806" height="9.84" transform="translate(0.804 0.868)"/>
      <path id="Path_126" data-name="Path 126" d="M1160.51,375.992H1109.7a.86.86,0,0,1-.8-.926v-9.84a.861.861,0,0,1,.8-.926h50.806a.86.86,0,0,1,.8.926v9.84A.9.9,0,0,1,1160.51,375.992Zm-49.953-1.91h49.149v-7.929h-49.149Z" transform="translate(-1108.9 -364.3)"/>
    </g>
    <g id="Group_130" data-name="Group 130" transform="translate(619.274 210.858)">
      <rect id="Rectangle_254" data-name="Rectangle 254" class="cls-7" width="22.765" height="9.84" transform="translate(0.804 0.868)"/>
      <path id="Path_127" data-name="Path 127" d="M1255.868,375.992H1233.1a.86.86,0,0,1-.8-.926v-9.84a.86.86,0,0,1,.8-.926h22.764a.86.86,0,0,1,.8.926v9.84A.9.9,0,0,1,1255.868,375.992Zm-21.961-1.91h21.107v-7.929h-21.107Z" transform="translate(-1232.3 -364.3)"/>
    </g>
    <g id="Group_131" data-name="Group 131" transform="translate(557.261 228.859)">
      <rect id="Rectangle_255" data-name="Rectangle 255" class="cls-7" width="93.874" height="9.84" transform="translate(0.804 0.868)"/>
      <path id="Path_128" data-name="Path 128" d="M1203.578,407.092H1109.7a.861.861,0,0,1-.8-.926v-9.84a.861.861,0,0,1,.8-.926h93.874a.86.86,0,0,1,.8.926v9.84A.861.861,0,0,1,1203.578,407.092Zm-93.02-1.91h92.216v-7.929h-92.216Z" transform="translate(-1108.9 -395.4)"/>
    </g>
    <g id="Group_132" data-name="Group 132" transform="translate(557.261 246.859)">
      <rect id="Rectangle_256" data-name="Rectangle 256" class="cls-7" width="57.038" height="9.84" transform="translate(0.804 0.926)"/>
      <path id="Path_129" data-name="Path 129" d="M1166.741,438.192H1109.7a.861.861,0,0,1-.8-.926v-9.84a.861.861,0,0,1,.8-.926h57.037a.86.86,0,0,1,.8.926v9.84A.83.83,0,0,1,1166.741,438.192Zm-56.184-1.91h55.38v-7.929h-55.38Z" transform="translate(-1108.9 -426.5)"/>
    </g>
    <g id="Group_133" data-name="Group 133" transform="translate(618.269 165.017)">
      <rect id="Rectangle_257" data-name="Rectangle 257" class="cls-7" width="26.383" height="9.84" transform="translate(0.804 0.868)"/>
      <path id="Path_130" data-name="Path 130" d="M1257.487,296.792H1231.1a.86.86,0,0,1-.8-.926v-9.84a.86.86,0,0,1,.8-.926h26.383a.86.86,0,0,1,.8.926v9.84A.86.86,0,0,1,1257.487,296.792Zm-25.579-1.91h24.725v-7.93h-24.725Z" transform="translate(-1230.3 -285.1)"/>
    </g>
    <g id="Group_134" data-name="Group 134" transform="translate(618.269 146.669)">
      <rect id="Rectangle_258" data-name="Rectangle 258" class="cls-7" width="19.046" height="9.84" transform="translate(0.804 0.868)"/>
      <path id="Path_131" data-name="Path 131" d="M1250.15,265.092H1231.1a.86.86,0,0,1-.8-.926v-9.84a.86.86,0,0,1,.8-.926h19.046a.861.861,0,0,1,.8.926v9.84A.83.83,0,0,1,1250.15,265.092Zm-18.242-1.91h17.438v-7.93h-17.438Z" transform="translate(-1230.3 -253.4)"/>
    </g>
    <g id="Group_135" data-name="Group 135" transform="translate(199.155 173.178)">
      <rect id="Rectangle_259" data-name="Rectangle 259" class="cls-4" width="27.539" height="32.76" transform="translate(0.804 0.926)"/>
      <path id="Path_132" data-name="Path 132" d="M424.643,333.812H397.1a.86.86,0,0,1-.8-.926v-32.76a.86.86,0,0,1,.8-.926h27.539a.86.86,0,0,1,.8.926v32.76A.861.861,0,0,1,424.643,333.812Zm-26.735-1.91h25.88v-30.85h-25.88Z" transform="translate(-396.3 -299.2)"/>
    </g>
    <g id="Group_137" data-name="Group 137" transform="translate(204.733 179.313)">
      <g id="Group_136" data-name="Group 136">
        <path id="Path_133" data-name="Path 133" class="cls-6" d="M417.894,331.858,409.1,321.729l8.794-10.129h7.036l-8.744,10.129L424.98,331.8Z" transform="translate(-408.246 -310.558)"/>
        <path id="Path_134" data-name="Path 134" d="M417.049,332.026a.869.869,0,0,1-.6-.289l-8.794-10.129a1.035,1.035,0,0,1-.251-.695,1.157,1.157,0,0,1,.251-.695l8.794-10.129a.784.784,0,0,1,.6-.289h7.086a.783.783,0,0,1,.754.579,1,1,0,0,1-.2,1.042l-8.192,9.435,8.242,9.434a1.12,1.12,0,0,1,.2,1.042.884.884,0,0,1-.754.579l-7.136.116Zm-7.639-11.055,7.94,9.145h4.774l-7.387-8.509a1.035,1.035,0,0,1-.251-.695,1.158,1.158,0,0,1,.251-.695l7.387-8.508H417.4Z" transform="translate(-407.4 -309.8)"/>
      </g>
    </g>
    <g id="Group_138" data-name="Group 138" transform="translate(239.759 173.178)">
      <rect id="Rectangle_260" data-name="Rectangle 260" class="cls-4" width="27.539" height="32.76" transform="translate(0.804 0.926)"/>
      <path id="Path_135" data-name="Path 135" d="M505.443,333.812H477.9a.86.86,0,0,1-.8-.926v-32.76a.86.86,0,0,1,.8-.926h27.539a.86.86,0,0,1,.8.926v32.76A.86.86,0,0,1,505.443,333.812Zm-26.735-1.91h25.88v-30.85h-25.88Z" transform="translate(-477.1 -299.2)"/>
    </g>
    <g id="Group_140" data-name="Group 140" transform="translate(245.518 179.429)">
      <g id="Group_139" data-name="Group 139">
        <path id="Path_136" data-name="Path 136" class="cls-6" d="M497.385,331.858l8.795-10.129L497.385,311.6H490.3l8.794,10.129L490.3,331.8Z" transform="translate(-489.425 -310.674)"/>
        <path id="Path_137" data-name="Path 137" d="M496.519,332.11h-7.136a.783.783,0,0,1-.754-.579,1,1,0,0,1,.2-1.042l8.242-9.435-8.191-9.434a1.119,1.119,0,0,1-.2-1.042.885.885,0,0,1,.753-.579h7.086a.87.87,0,0,1,.6.289l8.794,10.129a1.036,1.036,0,0,1,.251.695,1.158,1.158,0,0,1-.251.695l-8.795,10.129A1.572,1.572,0,0,1,496.519,332.11Zm-5.126-1.91h4.774l7.94-9.145-7.94-9.145h-4.724l7.387,8.508a1.036,1.036,0,0,1,.251.695,1.158,1.158,0,0,1-.251.695Z" transform="translate(-488.559 -310)"/>
      </g>
    </g>
    <g id="Group_150" data-name="Group 150" transform="translate(216.844 315.969)">
      <g id="Group_141" data-name="Group 141" transform="translate(0 50.53)">
        <path id="Path_138" data-name="Path 138" d="M566.431,649.407c-10.3,0-19.951-5.209-26.484-14.355H432.3a.935.935,0,0,1,0-1.852H540.349a.772.772,0,0,1,.653.347c6.231,8.913,15.528,14.007,25.479,14.007s19.2-5.094,25.479-14.007a.772.772,0,0,1,.653-.347H700.658a.935.935,0,0,1,0,1.852H592.914C586.331,644.2,576.733,649.407,566.431,649.407Z" transform="translate(-431.5 -633.2)"/>
      </g>
      <g id="Group_149" data-name="Group 149" transform="translate(4.523)">
        <g id="Group_142" data-name="Group 142" transform="translate(4.623)">
          <path id="Path_139" data-name="Path 139" d="M700.465,591.162a.755.755,0,0,1-.352-.058c-1.558-.81-3.065-1.563-4.573-2.316-33.871-16.785-62.616-25.351-85.431-25.351-25.428,0-33.971,10.882-34.022,11a.754.754,0,0,1-.6.347h0a.691.691,0,0,1-.6-.347c-.1-.116-8.694-11.055-34.122-11.055-22.765,0-51.46,8.509-85.33,25.352-1.508.752-3.066,1.5-4.573,2.315a.8.8,0,0,1-.8-.058.923.923,0,0,1-.352-.81v-7.293a1.11,1.11,0,0,1,.452-.868c1.407-.753,2.764-1.505,4.121-2.2v-6.309a1.029,1.029,0,0,1,.5-.868C489,554.929,518.044,545.9,541.161,545.9c22.363,0,31.911,8.508,34.323,11.113,2.412-2.6,11.96-11.113,34.323-11.113,23.117,0,52.164,8.972,86.386,26.741a1.029,1.029,0,0,1,.5.868v6.367c1.357.694,2.764,1.447,4.121,2.2a.984.984,0,0,1,.452.868v7.293a1.07,1.07,0,0,1-.352.811A.9.9,0,0,1,700.465,591.162Zm-90.306-29.635c23.016,0,51.962,8.566,86.084,25.467l3.467,1.737v-5.209c-1.407-.752-2.764-1.5-4.121-2.2a1.031,1.031,0,0,1-.5-.869v-6.367c-33.821-17.48-62.465-26.278-85.23-26.278-25.026,0-33.619,11.055-33.72,11.171a.8.8,0,0,1-1.257,0c-.1-.116-8.694-11.171-33.72-11.171-22.765,0-51.46,8.856-85.23,26.278V580.4a1.028,1.028,0,0,1-.5.868c-1.357.695-2.714,1.447-4.121,2.2v5.209l3.467-1.736c34.072-16.959,63.018-25.525,85.984-25.525,22.715,0,32.313,8.451,34.725,11C577.9,569.862,587.495,561.527,610.159,561.527Z" transform="translate(-449.7 -545.9)"/>
        </g>
        <g id="Group_143" data-name="Group 143" transform="translate(0 15.57)">
          <path id="Path_140" data-name="Path 140" class="cls-6" d="M696.635,602.142c-1.558-.811-3.065-1.563-4.624-2.315C596.831,552.6,571.654,585.7,571.654,585.7s-25.026-33.339-120.408,14.007c-1.507.752-3.066,1.5-4.623,2.315-1.507.753-3.065,1.563-4.623,2.373v4.8H701.359v-4.746C699.7,603.7,698.192,602.952,696.635,602.142Z" transform="translate(-441.246 -573.433)"/>
          <path id="Path_141" data-name="Path 141" d="M700.511,609.612H441.3a.86.86,0,0,1-.8-.926v-4.8a1.03,1.03,0,0,1,.5-.868c1.558-.81,3.116-1.621,4.624-2.374,1.558-.81,3.065-1.562,4.623-2.315,34.072-16.959,63.018-25.525,85.984-25.525,22.714,0,32.313,8.45,34.725,11,2.412-2.547,12.011-10.881,34.675-10.881,23.016,0,51.962,8.566,86.084,25.468,1.508.752,3.066,1.5,4.623,2.315,1.508.752,3.066,1.563,4.623,2.373a1.03,1.03,0,0,1,.5.868v4.746C701.316,609.149,700.964,609.612,700.511,609.612Zm-258.4-1.91H699.657v-3.183c-1.407-.752-2.764-1.447-4.121-2.142-1.558-.81-3.065-1.563-4.573-2.315-33.871-16.785-62.616-25.351-85.431-25.351-25.328,0-33.971,10.882-34.021,11a.755.755,0,0,1-.6.347h0a.69.69,0,0,1-.6-.347c-.1-.116-8.694-11.056-34.122-11.056-22.765,0-51.46,8.509-85.33,25.352-1.508.752-3.065,1.5-4.573,2.315-1.357.695-2.714,1.389-4.121,2.142V607.7Z" transform="translate(-440.5 -572.8)"/>
        </g>
        <g id="Group_144" data-name="Group 144" transform="translate(129.604 11.518)">
          <path id="Path_142" data-name="Path 142" d="M699.2,606.664a.86.86,0,0,1-.8-.926V566.726a.812.812,0,1,1,1.608,0v39.011A.9.9,0,0,1,699.2,606.664Z" transform="translate(-698.4 -565.8)"/>
        </g>
        <g id="Group_145" data-name="Group 145" transform="translate(55.809 25.775)">
          <path id="Path_143" data-name="Path 143" d="M626.154,600.832a.74.74,0,0,1-.452-.174c-.251-.174-24.825-17.48-73.119-1.852a.823.823,0,0,1-1-.637.986.986,0,0,1,.552-1.158c49.1-15.859,74.225,1.91,74.476,2.084a1.033,1.033,0,0,1,.251,1.331A.923.923,0,0,1,626.154,600.832Z" transform="translate(-551.556 -590.431)"/>
        </g>
        <g id="Group_146" data-name="Group 146" transform="translate(75.26 35.619)">
          <path id="Path_144" data-name="Path 144" d="M645.409,615.4a.562.562,0,0,1-.3-.058c-.2-.116-21.961-10.476-53.872-3.762a.818.818,0,0,1-.955-.752.927.927,0,0,1,.653-1.1c32.413-6.83,54.575,3.762,54.776,3.878a1.1,1.1,0,0,1,.452,1.273A.924.924,0,0,1,645.409,615.4Z" transform="translate(-590.261 -607.438)"/>
        </g>
        <g id="Group_147" data-name="Group 147" transform="translate(129.567 25.717)">
          <path id="Path_145" data-name="Path 145" d="M699.168,600.79a.849.849,0,0,1-.7-.463,1.034,1.034,0,0,1,.251-1.331c.251-.174,25.378-17.943,74.476-2.084a.92.92,0,0,1,.552,1.158.769.769,0,0,1-1,.637c-48.344-15.57-72.868,1.678-73.119,1.852A.579.579,0,0,1,699.168,600.79Z" transform="translate(-698.327 -590.331)"/>
        </g>
        <g id="Group_148" data-name="Group 148" transform="translate(129.576 35.561)">
          <path id="Path_146" data-name="Path 146" d="M699.176,615.361a.886.886,0,0,1-.754-.578,1.009,1.009,0,0,1,.453-1.274c.2-.116,22.363-10.708,54.776-3.878a.926.926,0,0,1,.653,1.1.818.818,0,0,1-.955.753c-31.911-6.714-53.62,3.646-53.872,3.762A.652.652,0,0,1,699.176,615.361Z" transform="translate(-698.345 -607.338)"/>
        </g>
      </g>
    </g>
    <g id="Group_153" data-name="Group 153" transform="translate(272.475 240.276)">
      <g id="Group_151" data-name="Group 151">
        <path id="Path_147" data-name="Path 147" class="cls-11" d="M622.4,445.74c19.7,0,35.63,3.241,35.63,7.235v11.286l42.766-16.728L622.4,416.8,544,447.534l42.766,16.728V452.975C586.766,448.981,602.7,445.74,622.4,445.74Z" transform="translate(-543.095 -415.831)"/>
        <path id="Path_148" data-name="Path 148" d="M657.13,464.54a.883.883,0,0,1-.5-.174,1.038,1.038,0,0,1-.352-.752V452.328c0-2.547-13.568-6.309-34.826-6.309s-34.825,3.7-34.825,6.309v11.287a1.036,1.036,0,0,1-.352.752.714.714,0,0,1-.753.116l-42.766-16.727a.943.943,0,0,1-.553-.926,1,1,0,0,1,.553-.926l78.4-30.734a.9.9,0,0,1,.553,0L700.1,445.9a.944.944,0,0,1,.553.926,1,1,0,0,1-.553.926L657.33,464.482C657.33,464.54,657.23,464.54,657.13,464.54ZM621.5,444.109c14.674,0,36.484,2.2,36.484,8.219v9.956l39.4-15.4L621.5,417.136l-75.832,29.692,39.4,15.4V452.27C585.016,446.308,606.826,444.109,621.5,444.109Z" transform="translate(-542.2 -415.125)"/>
      </g>
      <g id="Group_152" data-name="Group 152" transform="translate(42.816 28.984)">
        <path id="Path_149" data-name="Path 149" class="cls-10" d="M664.73,466.8c-19.7,0-35.63,3.241-35.63,7.235v22.11s21.257.868,35.63,9.608c14.423-8.74,35.63-9.608,35.63-9.608v-22.11C700.359,470.041,684.429,466.8,664.73,466.8Z" transform="translate(-628.245 -465.874)"/>
        <path id="Path_150" data-name="Path 150" d="M663.884,506.063a1.054,1.054,0,0,1-.4-.116c-14.071-8.508-35.077-9.492-35.278-9.492a.9.9,0,0,1-.8-.926v-22.11c0-6.02,21.81-8.219,36.484-8.219s36.484,2.2,36.484,8.219v22.11a.86.86,0,0,1-.8.926c-.2,0-21.207.984-35.278,9.492A.543.543,0,0,1,663.884,506.063ZM629.058,494.6c3.97.289,22.011,1.852,34.826,9.434,12.815-7.583,30.856-9.2,34.826-9.434V473.361c0-2.547-13.568-6.309-34.826-6.309s-34.826,3.7-34.826,6.309Z" transform="translate(-627.4 -465.2)"/>
      </g>
    </g>
    <g id="Group_154" data-name="Group 154" transform="translate(217.447 366.44)">
      <path id="Path_151" data-name="Path 151" class="cls-8" d="M701.95,634.7H434.3v4.8H545.712a30.247,30.247,0,0,0,44.223,0H701.95Z" transform="translate(-433.496 -633.774)"/>
      <path id="Path_152" data-name="Path 152" d="M567.027,649.364a31.775,31.775,0,0,1-22.413-9.609H433.5a.86.86,0,0,1-.8-.926v-4.8a.86.86,0,0,1,.8-.926h267.65a.86.86,0,0,1,.8.926v4.8a.86.86,0,0,1-.8.926H589.441A31.775,31.775,0,0,1,567.027,649.364ZM434.308,637.9H544.916a.7.7,0,0,1,.553.232,29.472,29.472,0,0,0,43.117,0,.7.7,0,0,1,.553-.232H700.35V635.01H434.308Z" transform="translate(-432.7 -633.1)"/>
    </g>
  </g>
</svg>
